<?xml version="1.0" encoding="utf-8"?>
<!-- Generator: Adobe Illustrator 22.1.0, SVG Export Plug-In . SVG Version: 6.00 Build 0)  -->
<svg version="1.1" id="Layer_1" xmlns="http://www.w3.org/2000/svg" xmlns:xlink="http://www.w3.org/1999/xlink" x="0px" y="0px"
	 width="32px" height="32px" viewBox="0 0 32 32" style="enable-background:new 0 0 32 32;" xml:space="preserve">
<path fill="#283cdc" d="M27.9,11.1c-0.1-1.3-0.3-2.1-0.6-2.9C27.1,7.4,26.7,6.7,26,6s-1.3-1.1-2.1-1.4c-0.8-0.3-1.6-0.5-2.9-0.6C19.7,4,19.3,4,16,4
	s-3.7,0-4.9,0.1C9.8,4.1,8.9,4.3,8.1,4.6C7.4,4.9,6.7,5.3,6,6S4.9,7.4,4.6,8.1c-0.3,0.8-0.5,1.6-0.6,2.9C4,12.3,4,12.7,4,16
	s0,3.7,0.1,4.9c0.1,1.3,0.3,2.1,0.6,2.9C4.9,24.6,5.3,25.3,6,26s1.3,1.1,2.1,1.4c0.8,0.3,1.6,0.5,2.9,0.6C12.3,28,12.7,28,16,28
	s3.7,0,4.9-0.1c1.3-0.1,2.1-0.3,2.9-0.6c0.8-0.3,1.5-0.7,2.1-1.4s1.1-1.3,1.4-2.1c0.3-0.8,0.5-1.6,0.6-2.9C28,19.7,28,19.3,28,16
	S28,12.3,27.9,11.1z M25.8,20.8c-0.1,1.2-0.2,1.8-0.4,2.2c-0.2,0.6-0.5,1-0.9,1.4c-0.4,0.4-0.8,0.7-1.4,0.9
	c-0.4,0.2-1.1,0.4-2.2,0.4c-1.3,0.1-1.6,0.1-4.8,0.1s-3.6,0-4.8-0.1c-1.2-0.1-1.8-0.2-2.2-0.4c-0.6-0.2-1-0.5-1.4-0.9
	c-0.4-0.4-0.7-0.8-0.9-1.4c-0.2-0.4-0.4-1.1-0.4-2.2c-0.1-1.3-0.1-1.6-0.1-4.8s0-3.6,0.1-4.8C6.3,10,6.5,9.3,6.6,8.9
	c0.2-0.6,0.5-1,0.9-1.4C8,7.1,8.4,6.9,8.9,6.6c0.4-0.2,1.1-0.4,2.2-0.4c1.3-0.1,1.6-0.1,4.8-0.1c3.2,0,3.6,0,4.8,0.1
	c1.2,0.1,1.8,0.2,2.2,0.4c0.6,0.2,1,0.5,1.4,0.9c0.4,0.4,0.7,0.8,0.9,1.4c0.2,0.4,0.4,1.1,0.4,2.2c0.1,1.3,0.1,1.6,0.1,4.8
	S25.8,19.6,25.8,20.8z M22.4,8.2c-0.8,0-1.4,0.6-1.4,1.4s0.6,1.4,1.4,1.4c0.8,0,1.4-0.6,1.4-1.4S23.2,8.2,22.4,8.2z M16,9.8
	c-3.4,0-6.2,2.8-6.2,6.2s2.8,6.2,6.2,6.2s6.2-2.8,6.2-6.2S19.4,9.8,16,9.8z M16,20c-2.2,0-4-1.8-4-4c0-2.2,1.8-4,4-4
	c2.2,0,4,1.8,4,4C20,18.2,18.2,20,16,20z"/>
</svg>
